<svg width="60" height="60" viewBox="0 0 60 60" fill="none" xmlns="http://www.w3.org/2000/svg">
<path d="M37.5 22.5H37.525M37.5 37.5C45.7842 37.5 52.5 30.7842 52.5 22.5C52.5 14.2157 45.7842 7.5 37.5 7.5C29.2158 7.5 22.5 14.2157 22.5 22.5C22.5 23.1842 22.5458 23.8577 22.6345 24.5176C22.7805 25.603 22.8534 26.1458 22.8043 26.489C22.7531 26.8468 22.688 27.0393 22.5117 27.3548C22.3425 27.6575 22.0443 27.9558 21.4478 28.5523L8.67158 41.3285C8.2392 41.7608 8.023 41.977 7.8684 42.2293C7.73133 42.453 7.63033 42.6967 7.56908 42.952C7.5 43.2397 7.5 43.5455 7.5 44.1568V48.5C7.5 49.9002 7.5 50.6003 7.77247 51.135C8.01217 51.6055 8.39463 51.9878 8.86503 52.2275C9.3998 52.5 10.0999 52.5 11.5 52.5H15.8431C16.4546 52.5 16.7604 52.5 17.0481 52.431C17.3032 52.3698 17.547 52.2688 17.7707 52.1315C18.023 51.977 18.2392 51.7608 18.6716 51.3285L31.4477 38.5523C32.0442 37.9558 32.3425 37.6575 32.6452 37.4883C32.9607 37.312 33.1532 37.2467 33.511 37.1957C33.8542 37.1465 34.397 37.2195 35.4825 37.3655C36.1422 37.4543 36.8158 37.5 37.5 37.5Z" stroke="black" stroke-width="5" stroke-linecap="round" stroke-linejoin="round"/>
</svg>
