<svg width="61" height="61" viewBox="0 0 61 61" fill="#27272" xmlns="http://www.w3.org/2000/svg">
<g clip-path="url(#clip0_294_6)">
<path fill-rule="evenodd" clip-rule="evenodd" d="M6.47119 57.0449C5.43994 57.0449 4.59619 56.2012 4.59619 55.1699V42.0449H13.9712V38.2949H4.59619V23.2949H13.9712V19.5449H4.59619V6.41992C4.59619 5.38492 5.43994 4.54492 6.47119 4.54492H55.2212C56.2524 4.54492 57.0962 5.38492 57.0962 6.41992V19.5449H47.7212V23.2949H57.0962V38.2949H47.7212V42.0449H57.0962V55.1699C57.0962 56.2012 56.2524 57.0449 55.2212 57.0449H6.47119ZM60.8462 55.1699V6.41992C60.8462 3.31867 58.3224 0.794922 55.2212 0.794922H6.47119C3.36994 0.794922 0.846191 3.31867 0.846191 6.41992V55.1699C0.846191 58.2712 3.36994 60.7949 6.47119 60.7949H55.2212C58.3224 60.7949 60.8462 58.2712 60.8462 55.1699ZM16.0124 40.3262L21.3149 45.6287L30.8512 36.0924L40.3874 45.6287L45.6899 40.3262L36.1537 30.7899L45.6899 21.2537L40.3874 15.9512L30.8512 25.4874L21.3149 15.9512L16.0124 21.2537L25.5487 30.7899L16.0124 40.3262Z" fill="#272727"/>
</g>
<defs>
<clipPath id="clip0_294_6">
<rect width="60" height="60" fill="white" transform="translate(0.846191 0.794922)"/>
</clipPath>
</defs>
</svg>
