<svg width="60" height="60" viewBox="0 0 60 60" fill="none" xmlns="http://www.w3.org/2000/svg">
<g clip-path="url(#clip0_234_30)">
<path d="M48.75 22.5H43.75V16.25C43.75 12.6033 42.3013 9.10591 39.7227 6.52728C37.1441 3.94866 33.6467 2.5 30 2.5H27.5C23.8533 2.5 20.3559 3.94866 17.7773 6.52728C15.1987 9.10591 13.75 12.6033 13.75 16.25V22.5H8.75C8.08696 22.5 7.45107 22.7634 6.98223 23.2322C6.51339 23.7011 6.25 24.337 6.25 25V55C6.25 55.663 6.51339 56.2989 6.98223 56.7678C7.45107 57.2366 8.08696 57.5 8.75 57.5H48.75C49.413 57.5 50.0489 57.2366 50.5178 56.7678C50.9866 56.2989 51.25 55.663 51.25 55V25C51.25 24.337 50.9866 23.7011 50.5178 23.2322C50.0489 22.7634 49.413 22.5 48.75 22.5ZM18.75 16.25C18.75 13.9294 19.6719 11.7038 21.3128 10.0628C22.9538 8.42187 25.1794 7.5 27.5 7.5H30C32.3206 7.5 34.5462 8.42187 36.1872 10.0628C37.8281 11.7038 38.75 13.9294 38.75 16.25V22.5H18.75V16.25ZM46.25 52.5H11.25V27.5H46.25V52.5Z" fill="black"/>
<path d="M18.75 43.75C20.8211 43.75 22.5 42.0711 22.5 40C22.5 37.9289 20.8211 36.25 18.75 36.25C16.6789 36.25 15 37.9289 15 40C15 42.0711 16.6789 43.75 18.75 43.75Z" fill="black"/>
<path d="M28.75 43.75C30.8211 43.75 32.5 42.0711 32.5 40C32.5 37.9289 30.8211 36.25 28.75 36.25C26.6789 36.25 25 37.9289 25 40C25 42.0711 26.6789 43.75 28.75 43.75Z" fill="black"/>
<path d="M38.75 43.75C40.8211 43.75 42.5 42.0711 42.5 40C42.5 37.9289 40.8211 36.25 38.75 36.25C36.6789 36.25 35 37.9289 35 40C35 42.0711 36.6789 43.75 38.75 43.75Z" fill="black"/>
</g>
<defs>
<clipPath id="clip0_234_30">
<rect width="60" height="60" fill="white"/>
</clipPath>
</defs>
</svg>
