<svg width="60" height="60" viewBox="0 0 60 60" fill="none" xmlns="http://www.w3.org/2000/svg">
<path d="M12.8228 13.2373C12.5 13.6922 12.5 14.3365 12.5 15.625C12.5 16.9135 12.5 17.5578 12.8228 18.0127C12.9367 18.1732 13.0768 18.3134 13.2373 18.4272C13.6922 18.75 14.3365 18.75 15.625 18.75C16.9135 18.75 17.5578 18.75 18.0127 18.4272C18.1732 18.3134 18.3134 18.1732 18.4272 18.0127C18.75 17.5578 18.75 16.9135 18.75 15.625C18.75 14.3365 18.75 13.6922 18.4272 13.2373C18.3134 13.0768 18.1732 12.9367 18.0127 12.8228C17.5578 12.5 16.9135 12.5 15.625 12.5C14.3365 12.5 13.6922 12.5 13.2373 12.8228C13.0768 12.9367 12.9367 13.0768 12.8228 13.2373Z" fill="#1C274C"/>
<path fill-rule="evenodd" clip-rule="evenodd" d="M21.7604 3.22553C22.8663 3.33068 23.8969 3.55883 24.8422 4.1381C25.7672 4.70498 26.545 5.48275 27.112 6.40783C27.6912 7.35313 27.9192 8.38373 28.0245 9.48963C28.125 10.5475 28.125 11.8499 28.125 13.4106V16.38C28.125 18.6262 28.1253 20.4993 27.9253 21.9862C27.7143 23.5557 27.25 24.9727 26.1112 26.1112C24.9727 27.25 23.5557 27.7143 21.9862 27.9253C20.4993 28.1253 18.6263 28.125 16.3801 28.125H13.4108C11.8501 28.125 10.5475 28.125 9.48963 28.0245C8.38373 27.9192 7.35313 27.6912 6.40783 27.112C5.48275 26.545 4.70498 25.7672 4.1381 24.8422C3.55883 23.8969 3.33068 22.8663 3.22553 21.7604C3.12493 20.7025 3.12498 19.4 3.125 17.8393V17.6559C3.12498 15.2807 3.12495 13.3652 3.27158 11.8232C3.42278 10.233 3.74303 8.84745 4.5065 7.60158C5.27953 6.34013 6.34013 5.27953 7.60158 4.5065C8.84745 3.74303 10.233 3.42278 11.8232 3.27158C13.3652 3.12495 15.2807 3.12498 17.6558 3.125H17.8392C19.4 3.12498 20.7025 3.12493 21.7604 3.22553ZM21.4054 6.95868C20.5461 6.87698 19.423 6.875 17.75 6.875C15.2586 6.875 13.5218 6.87698 12.1781 7.00473C10.8624 7.12983 10.1186 7.36218 9.56095 7.7039C8.80408 8.16773 8.16773 8.80408 7.7039 9.56095C7.36218 10.1186 7.12983 10.8624 7.00473 12.1781C6.87698 13.5218 6.875 15.2586 6.875 17.75C6.875 19.423 6.87698 20.5461 6.95868 21.4054C7.03773 22.2368 7.17798 22.6258 7.3355 22.8828C7.59318 23.3033 7.9467 23.6568 8.3672 23.9145C8.62425 24.072 9.01318 24.2123 9.84458 24.2913C10.7039 24.373 11.827 24.375 13.5 24.375H16.25C18.66 24.375 20.2789 24.371 21.4865 24.2087C22.6402 24.0535 23.1339 23.7855 23.4597 23.4597C23.7855 23.1339 24.0535 22.6402 24.2087 21.4865C24.371 20.2789 24.375 18.66 24.375 16.25V13.5C24.375 11.827 24.373 10.7039 24.2913 9.84458C24.2123 9.01318 24.072 8.62425 23.9145 8.3672C23.6568 7.9467 23.3033 7.59318 22.8828 7.3355C22.6258 7.17798 22.2368 7.03773 21.4054 6.95868Z" fill="#1C274C"/>
<path d="M41.5728 13.2373C41.25 13.6922 41.25 14.3365 41.25 15.625C41.25 16.9135 41.25 17.5578 41.5728 18.0127C41.6868 18.1732 41.8268 18.3134 41.9873 18.4272C42.4423 18.75 43.0865 18.75 44.375 18.75C45.6635 18.75 46.3077 18.75 46.7627 18.4272C46.9232 18.3134 47.0632 18.1732 47.1772 18.0127C47.5 17.5578 47.5 16.9135 47.5 15.625C47.5 14.3365 47.5 13.6922 47.1772 13.2373C47.0632 13.0768 46.9232 12.9367 46.7627 12.8228C46.3077 12.5 45.6635 12.5 44.375 12.5C43.0865 12.5 42.4423 12.5 41.9873 12.8228C41.8268 12.9367 41.6868 13.0768 41.5728 13.2373Z" fill="#1C274C"/>
<path fill-rule="evenodd" clip-rule="evenodd" d="M42.1607 3.125H42.3443C44.7193 3.12498 46.6348 3.12495 48.1768 3.27158C49.767 3.42278 51.1525 3.74303 52.3985 4.5065C53.66 5.27953 54.7205 6.34013 55.4935 7.60158C56.257 8.84745 56.5773 10.233 56.7285 11.8232C56.875 13.3652 56.875 15.2807 56.875 17.6559V17.8393C56.875 19.4 56.875 20.7025 56.7745 21.7604C56.6693 22.8663 56.4413 23.8969 55.862 24.8422C55.295 25.7672 54.5172 26.545 53.5922 27.112C52.647 27.6912 51.6163 27.9192 50.5105 28.0245C49.4525 28.125 48.1503 28.125 46.5898 28.125H43.62C41.3737 28.125 39.5007 28.1253 38.0137 27.9253C36.4442 27.7143 35.0273 27.25 33.8888 26.1112C32.75 24.9727 32.2857 23.5557 32.0747 21.9862C31.8747 20.4993 31.875 18.6262 31.875 16.38V13.4108C31.875 11.85 31.875 10.5475 31.9755 9.48963C32.0808 8.38373 32.3088 7.35313 32.888 6.40783C33.455 5.48275 34.2327 4.70498 35.1577 4.1381C36.103 3.55883 37.1338 3.33068 38.2398 3.22553C39.2975 3.12493 40.6 3.12498 42.1607 3.125ZM38.5945 6.95868C37.7633 7.03773 37.3742 7.17798 37.1172 7.3355C36.6967 7.59318 36.3433 7.9467 36.0855 8.3672C35.928 8.62425 35.7877 9.01318 35.7087 9.84458C35.627 10.7039 35.625 11.827 35.625 13.5V16.25C35.625 18.66 35.629 20.2789 35.7912 21.4865C35.9465 22.6402 36.2145 23.1339 36.5403 23.4597C36.866 23.7855 37.3598 24.0535 38.5135 24.2087C39.721 24.371 41.34 24.375 43.75 24.375H46.5C48.173 24.375 49.296 24.373 50.1555 24.2913C50.9868 24.2123 51.3757 24.072 51.6327 23.9145C52.0532 23.6568 52.4067 23.3033 52.6645 22.8828C52.822 22.6258 52.9622 22.2368 53.0412 21.4054C53.123 20.5461 53.125 19.423 53.125 17.75C53.125 15.2586 53.123 13.5218 52.9952 12.1781C52.8702 10.8624 52.6377 10.1186 52.296 9.56095C51.8322 8.80408 51.196 8.16773 50.439 7.7039C49.8815 7.36218 49.1375 7.12983 47.822 7.00473C46.4782 6.87698 44.7415 6.875 42.25 6.875C40.577 6.875 39.454 6.87698 38.5945 6.95868Z" fill="#1C274C"/>
<path d="M12.5 44.375C12.5 43.0865 12.5 42.4423 12.8228 41.9873C12.9367 41.8268 13.0768 41.6868 13.2373 41.5728C13.6922 41.25 14.3365 41.25 15.625 41.25C16.9135 41.25 17.5578 41.25 18.0127 41.5728C18.1732 41.6868 18.3134 41.8268 18.4272 41.9873C18.75 42.4423 18.75 43.0865 18.75 44.375C18.75 45.6635 18.75 46.3077 18.4272 46.7627C18.3134 46.9232 18.1732 47.0632 18.0127 47.1772C17.5578 47.5 16.9135 47.5 15.625 47.5C14.3365 47.5 13.6922 47.5 13.2373 47.1772C13.0768 47.0632 12.9367 46.9232 12.8228 46.7627C12.5 46.3077 12.5 45.6635 12.5 44.375Z" fill="#1C274C"/>
<path fill-rule="evenodd" clip-rule="evenodd" d="M21.9862 32.0747C23.5557 32.2857 24.9727 32.75 26.1112 33.8888C27.25 35.0273 27.7143 36.4442 27.9253 38.0137C28.1253 39.5007 28.125 41.3737 28.125 43.62V46.5893C28.125 48.1498 28.125 49.4525 28.0245 50.5105C27.9192 51.6163 27.6912 52.647 27.112 53.5922C26.545 54.5172 25.7672 55.295 24.8422 55.862C23.8969 56.4413 22.8663 56.6693 21.7604 56.7745C20.7025 56.875 19.4 56.875 17.8393 56.875H17.6559C15.2807 56.875 13.3652 56.875 11.8232 56.7285C10.233 56.5773 8.84745 56.257 7.60158 55.4935C6.34013 54.7205 5.27953 53.66 4.5065 52.3985C3.74303 51.1525 3.42278 49.767 3.27158 48.1768C3.12495 46.6348 3.12498 44.7193 3.125 42.3443V42.1607C3.12498 40.6 3.12493 39.2975 3.22553 38.2398C3.33068 37.1338 3.55883 36.103 4.1381 35.1577C4.70498 34.2327 5.48275 33.455 6.40783 32.888C7.35313 32.3088 8.38373 32.0808 9.48963 31.9755C10.5475 31.875 11.85 31.875 13.4108 31.875H16.38C18.6262 31.875 20.4993 31.8747 21.9862 32.0747ZM21.4865 35.7912C20.2789 35.629 18.66 35.625 16.25 35.625H13.5C11.827 35.625 10.7039 35.627 9.84458 35.7087C9.01318 35.7877 8.62425 35.928 8.3672 36.0855C7.9467 36.3433 7.59318 36.6967 7.3355 37.1172C7.17798 37.3742 7.03773 37.7633 6.95868 38.5945C6.87698 39.454 6.875 40.577 6.875 42.25C6.875 44.7415 6.87698 46.4782 7.00473 47.822C7.12983 49.1375 7.36218 49.8815 7.7039 50.439C8.16773 51.196 8.80408 51.8322 9.56095 52.296C10.1186 52.6377 10.8624 52.8702 12.1781 52.9952C13.5218 53.123 15.2586 53.125 17.75 53.125C19.423 53.125 20.5461 53.123 21.4054 53.0412C22.2368 52.9622 22.6258 52.822 22.8828 52.6645C23.3033 52.4067 23.6568 52.0532 23.9145 51.6327C24.072 51.3757 24.2123 50.9868 24.2913 50.1555C24.373 49.296 24.375 48.173 24.375 46.5V43.75C24.375 41.34 24.371 39.721 24.2087 38.5135C24.0535 37.3598 23.7855 36.866 23.4597 36.5403C23.1339 36.2145 22.6402 35.9465 21.4865 35.7912Z" fill="#1C274C"/>
<path d="M42.4043 31.875H47.5V35.625H42.5C40.7055 35.625 39.5005 35.6272 38.582 35.7207C37.695 35.811 37.285 35.9705 37.0138 36.1518C36.6728 36.3798 36.3798 36.6728 36.1518 37.0138C35.9705 37.285 35.811 37.695 35.7207 38.582C35.6272 39.5005 35.625 40.7055 35.625 42.5H31.875V42.4043C31.875 40.7303 31.875 39.3333 31.99 38.2025C32.1105 37.0188 32.3723 35.9205 33.0338 34.9305C33.5353 34.1798 34.1798 33.5353 34.9305 33.0338C35.9205 32.3723 37.0188 32.1105 38.2025 31.99C39.3333 31.875 40.7303 31.875 42.4043 31.875Z" fill="#1C274C"/>
<path d="M31.875 55V47.5H35.625V55C35.625 56.0355 34.7855 56.875 33.75 56.875C32.7145 56.875 31.875 56.0355 31.875 55Z" fill="#1C274C"/>
<path d="M56.875 33.75C56.875 32.7145 56.0355 31.875 55 31.875C53.9645 31.875 53.125 32.7145 53.125 33.75V42.5H56.875V33.75Z" fill="#1C274C"/>
<path d="M53.125 47.5C53.125 48.6905 53.124 49.4895 53.0818 50.1083C53.0408 50.71 52.967 51.003 52.8872 51.196C52.57 51.9615 51.9615 52.57 51.196 52.8872C51.003 52.967 50.71 53.0408 50.1083 53.0818C49.4895 53.124 48.6905 53.125 47.5 53.125H42.5V56.875H47.5632C48.6742 56.875 49.602 56.875 50.3635 56.823C51.1562 56.769 51.905 56.6525 52.631 56.3518C54.3155 55.654 55.654 54.3155 56.3518 52.631C56.6525 51.905 56.769 51.1562 56.823 50.3635C56.875 49.602 56.875 48.6745 56.875 47.5632V47.5H53.125Z" fill="#1C274C"/>
<path d="M40.4213 41.111C40 41.7418 40 42.6195 40 44.375C40 46.1305 40 47.0082 40.4213 47.639C40.6038 47.912 40.838 48.1462 41.111 48.3287C41.7418 48.75 42.6195 48.75 44.375 48.75C46.1305 48.75 47.0082 48.75 47.639 48.3287C47.912 48.1462 48.1462 47.912 48.3287 47.639C48.75 47.0082 48.75 46.1305 48.75 44.375C48.75 42.6195 48.75 41.7418 48.3287 41.111C48.1462 40.838 47.912 40.6038 47.639 40.4213C47.0082 40 46.1305 40 44.375 40C42.6195 40 41.7418 40 41.111 40.4213C40.838 40.6038 40.6038 40.838 40.4213 41.111Z" fill="#1C274C"/>
</svg>
