<svg xmlns="http://www.w3.org/2000/svg" width="107" height="107" viewBox="0 0 107 107">
  <g id="Profile" transform="translate(-320.766 -77.305)">
    <circle id="Ellipse_241" data-name="Ellipse 241" cx="53.5" cy="53.5" r="53.5" transform="translate(320.766 77.305)" fill="#fff"/>
    <g id="Add_User" data-name="Add User" transform="translate(347.766 104.305)">
      <rect id="Rectangle_1472" data-name="Rectangle 1472" width="54" height="54" fill="#fff" opacity="0"/>
      <g id="Add_User-2" data-name="Add User" transform="translate(8.125 4.991)">
        <g id="Exclusion_1" data-name="Exclusion 1" fill="#344054">
          <path d="M 2.363925457000732 43.63708114624023 C 1.094435334205627 43.63708114624023 0.1000053733587265 42.64041900634766 0.1000053733587265 41.36809158325195 L 0.1000053733587265 37.60366821289062 C 0.1000053733587265 31.32431983947754 5.20248556137085 26.21569061279297 11.47428512573242 26.21569061279297 L 25.98562622070312 26.21569061279297 C 32.25757598876953 26.21569061279297 37.36017608642578 31.32431983947754 37.36017608642578 37.60366821289062 L 37.36017608642578 41.36809158325195 C 37.36017608642578 42.60321807861328 36.35659408569336 43.62079620361328 35.12286758422852 43.6370735168457 C 33.88983535766602 43.62079620361328 32.88683700561523 42.60321807861328 32.88683700561523 41.36809158325195 L 32.88683700561523 37.60366821289062 C 32.88683700561523 33.80867004394531 29.79926490783691 30.72122001647949 26.00413513183594 30.72122001647949 L 11.51105499267578 30.72122001647949 C 7.715775489807129 30.72122001647949 4.628095149993896 33.80867004394531 4.628095149993896 37.60366821289062 L 4.628095149993896 41.36809158325195 C 4.628095149993896 42.61922073364258 3.612395286560059 43.63708114624023 2.363925457000732 43.63708114624023 Z M 18.74808502197266 22.00786972045898 C 12.70708560943604 22.00786972045898 7.792375564575195 17.09576988220215 7.792375564575195 11.05799007415771 C 7.792375564575195 5.015729904174805 12.70708560943604 0.0999998077750206 18.74808502197266 0.0999998077750206 C 24.78950500488281 0.0999998077750206 29.70455551147461 5.015729904174805 29.70455551147461 11.05799007415771 C 29.70455551147461 17.09576988220215 24.78950500488281 22.00786972045898 18.74808502197266 22.00786972045898 Z M 18.74808502197266 4.646090030670166 C 15.19353580474854 4.646090030670166 12.3017053604126 7.529739856719971 12.3017053604126 11.07421970367432 C 12.3017053604126 14.63212013244629 15.19353580474854 17.52667999267578 18.74808502197266 17.52667999267578 C 22.30276489257812 17.52667999267578 25.19471549987793 14.63212013244629 25.19471549987793 11.07421970367432 C 25.19471549987793 7.529739856719971 22.30276489257812 4.646090030670166 18.74808502197266 4.646090030670166 Z" stroke="none"/>
          <path d="M 2.363925457000732 43.53707885742188 C 3.557255268096924 43.53707885742188 4.528095245361328 42.56407928466797 4.528095245361328 41.36809158325195 L 4.528095245361328 37.60366821289062 C 4.528095245361328 33.7535285949707 7.660635471343994 30.62121963500977 11.51105499267578 30.62121963500977 L 26.00413513183594 30.62121963500977 C 29.85440444946289 30.62121963500977 32.98683547973633 33.7535285949707 32.98683547973633 37.60366821289062 L 32.98683547973633 41.36809158325195 C 32.98683547973633 42.54835510253906 33.94485092163086 43.52081298828125 35.12286758422852 43.53706741333008 C 36.30158996582031 43.52081298828125 37.26017379760742 42.54835510253906 37.26017379760742 41.36809158325195 L 37.26017379760742 37.60366821289062 C 37.26017379760742 31.37945938110352 32.20243453979492 26.31568908691406 25.98562622070312 26.31568908691406 L 11.47428512573242 26.31568908691406 C 5.257625579833984 26.31568908691406 0.200005367398262 31.37945938110352 0.200005367398262 37.60366821289062 L 0.200005367398262 41.36809158325195 C 0.200005367398262 42.5843505859375 1.15051531791687 43.53707885742188 2.363925457000732 43.53707885742188 M 18.74808502197266 21.90786933898926 C 24.73436546325684 21.90786933898926 29.60455513000488 17.04063034057617 29.60455513000488 11.05799007415771 C 29.60455513000488 5.070869922637939 24.73436546325684 0.1999998092651367 18.74808502197266 0.1999998092651367 C 12.76222515106201 0.1999998092651367 7.892375469207764 5.070869922637939 7.892375469207764 11.05799007415771 C 7.892375469207764 17.04063034057617 12.76222515106201 21.90786933898926 18.74808502197266 21.90786933898926 M 18.74808502197266 4.546089649200439 C 22.3579044342041 4.546089649200439 25.29471588134766 7.474599838256836 25.29471588134766 11.07421970367432 C 25.29471588134766 14.68725967407227 22.3579044342041 17.62668037414551 18.74808502197266 17.62668037414551 C 15.13839530944824 17.62668037414551 12.20170497894287 14.68725967407227 12.20170497894287 11.07421970367432 C 12.20170497894287 7.474599838256836 15.13839530944824 4.546089649200439 18.74808502197266 4.546089649200439 M 35.12286376953125 43.73707962036133 C 33.83493423461914 43.72084808349609 32.78683471679688 42.65805816650391 32.78683471679688 41.36809158325195 L 32.78683471679688 37.60366821289062 C 32.78683471679688 33.86357879638672 29.74396514892578 30.82122039794922 26.00413513183594 30.82122039794922 L 11.51105499267578 30.82122039794922 C 7.770965576171875 30.82122039794922 4.728095531463623 33.86357879638672 4.728095531463623 37.60366821289062 L 4.728095531463623 41.36809158325195 C 4.728095531463623 42.67427825927734 3.66782546043396 43.73707962036133 2.363925457000732 43.73707962036133 C 1.03846538066864 43.73707962036133 5.372924988478189e-06 42.69049835205078 5.372924988478189e-06 41.36809158325195 L 5.372924988478189e-06 37.60366821289062 C 5.372924988478189e-06 31.26742935180664 5.147175312042236 26.11569023132324 11.47428512573242 26.11569023132324 L 25.98562622070312 26.11569023132324 C 32.31298446655273 26.11569023132324 37.46017456054688 31.26742935180664 37.46017456054688 37.60366821289062 L 37.46017456054688 41.36809158325195 C 37.46017456054688 42.66616821289062 36.41156387329102 43.72084808349609 35.12286376953125 43.73707962036133 Z M 18.74808502197266 22.10787010192871 C 12.65194511413574 22.10787010192871 7.692375183105469 17.15084075927734 7.692375183105469 11.05799007415771 C 7.692375183105469 4.965149879455566 12.65194511413574 -1.898193318083941e-07 18.74808502197266 -1.898193318083941e-07 C 24.84473609924316 -1.898193318083941e-07 29.80455589294434 4.965149879455566 29.80455589294434 11.05799007415771 C 29.80455589294434 17.15084075927734 24.84473609924316 22.10787010192871 18.74808502197266 22.10787010192871 Z M 18.74808502197266 4.746089935302734 C 15.24885559082031 4.746089935302734 12.40170574188232 7.585639953613281 12.40170574188232 11.07421970367432 C 12.40170574188232 14.57090950012207 15.24885559082031 17.42667961120605 18.74808502197266 17.42667961120605 C 22.24781608581543 17.42667961120605 25.0947151184082 14.57090950012207 25.0947151184082 11.07421970367432 C 25.0947151184082 7.585639953613281 22.24781608581543 4.746089935302734 18.74808502197266 4.746089935302734 Z" stroke="none" fill="#fff"/>
        </g>
      </g>
    </g>
  </g>
</svg>
