<svg width="60" height="60" viewBox="0 0 60 60" fill="none" xmlns="http://www.w3.org/2000/svg">
<path d="M19.6179 30.1318C9.23342 34.2708 1.86768 44.4053 1.86769 56.25C1.86675 56.4975 1.91479 56.7426 2.00905 56.9714C2.10331 57.2002 2.24193 57.4081 2.41691 57.5831C2.59188 57.7581 2.79976 57.8967 3.02856 57.991C3.25736 58.0852 3.50256 58.1333 3.75001 58.1323H56.25C56.7473 58.1303 57.2234 57.9309 57.5736 57.5779C57.9239 57.2249 58.1196 56.7473 58.1177 56.25C58.1177 44.4065 50.7539 34.2716 40.3711 30.1318C37.4999 32.3833 33.8978 33.7427 29.9927 33.7427C26.0868 33.7427 22.4866 32.3841 19.6179 30.1318Z" fill="black"/>
<path d="M29.9929 1.88232C21.7309 1.88232 15.0039 8.60934 15.0039 16.8713C15.0039 25.1334 21.7309 31.875 29.9929 31.875C38.255 31.875 44.9966 25.1334 44.9966 16.8713C44.9966 8.60934 38.255 1.88232 29.9929 1.88232Z" fill="black"/>
</svg>
