<svg id="Success_and_error_icon" data-name="Success and error icon" xmlns="http://www.w3.org/2000/svg" width="14" height="14" viewBox="0 0 14 14">
  <g id="Group_36755" data-name="Group 36755">
    <rect id="Bg" width="14" height="14" fill="#fff" opacity="0"/>
    <g id="Checkmark" transform="translate(0.245 0.245)">
      <circle id="Ellipse_120" data-name="Ellipse 120" cx="6.755" cy="6.755" r="6.755" fill="#09af57"/>
      <path id="Path_6639" data-name="Path 6639" d="M5.813,7.724a.959.959,0,0,0-.882.6A.928.928,0,0,0,5.12,9.39c.609.637,1.218,1.26,1.841,1.883a.972.972,0,0,0,1.428-.014c1.141-1.19,2.282-2.373,3.409-3.57a1,1,0,0,0-1.484-1.351Q9.023,7.682,7.738,9.04c-.063.07-.1.077-.168,0-.322-.343-.658-.679-.987-1.015a1.008,1.008,0,0,0-.77-.315Z" transform="translate(-1.697 -2.046)" fill="#f9fafb"/>
    </g>
  </g>
</svg>
