<svg id="Eye_open_Eye_closed" data-name="Eye open &amp; Eye closed" xmlns="http://www.w3.org/2000/svg" width="20" height="20" viewBox="0 0 20 20">
  <g id="Eye_closed" data-name="Eye closed" transform="translate(4815 19778)">
    <rect id="Bg" width="20" height="20" transform="translate(-4815 -19778)" fill="#fff" opacity="0"/>
    <path id="Eye_closed-2" data-name="Eye closed" d="M11.5,7.836a4.194,4.194,0,0,1,4.207,4.174,4.015,4.015,0,0,1-.3,1.528l2.456,2.436A9.87,9.87,0,0,0,20.75,12.01a9.963,9.963,0,0,0-12.6-5.677l1.817,1.8A4.16,4.16,0,0,1,11.5,7.836ZM3.092,5.561l1.92,1.9.388.384A9.823,9.823,0,0,0,2.25,12.01a9.978,9.978,0,0,0,12.935,5.557l.355.351L18,20.354l1.069-1.061L4.157,4.5Zm4.649,4.612,1.3,1.292a2.365,2.365,0,0,0-.066.541,2.51,2.51,0,0,0,2.523,2.5,2.373,2.373,0,0,0,.545-.066l1.3,1.292A4.185,4.185,0,0,1,7.3,12,4.124,4.124,0,0,1,7.741,10.173Zm3.625-.648,2.651,2.63.017-.132a2.51,2.51,0,0,0-2.523-2.5Z" transform="translate(-4816.5 -19780)" fill="#344054"/>
  </g>
</svg>
