<svg width="60" height="60" viewBox="0 0 60 60" fill="none" xmlns="http://www.w3.org/2000/svg">
<path d="M30.0002 25V35M25.6692 27.5L34.3295 32.5M34.3287 27.5L25.6685 32.5" stroke="white" stroke-width="3.75" stroke-linecap="round"/>
<path d="M16.8311 25V35M12.5001 27.5L21.1603 32.5M21.1598 27.5L12.4995 32.5" stroke="white" stroke-width="3.75" stroke-linecap="round"/>
<path d="M43.1701 25V35M38.8389 27.5L47.4991 32.5M47.4986 27.5L38.8384 32.5" stroke="white" stroke-width="3.75" stroke-linecap="round"/>
<path d="M55 30C55 39.428 55 44.1422 52.071 47.071C49.1422 50 44.428 50 35 50H25C15.5719 50 10.8579 50 7.92893 47.071C5 44.1422 5 39.428 5 30C5 20.5719 5 15.8579 7.92893 12.9289C10.8579 10 15.5719 10 25 10H35C44.428 10 49.1422 10 52.071 12.9289C53.704 14.5619 54.4265 16.7497 54.7463 20" stroke="white" stroke-width="3.75" stroke-linecap="round"/>
</svg>
