<svg viewBox="0 0 32 32" fill="none" xmlns="http://www.w3.org/2000/svg">
<path fill="#fff" style="fill: var(--color1, #fff)" d="M25.159 28.949c-0.003 0-0.007 0-0.011 0-1.619 0-3.083-0.663-4.136-1.732l-0.001-0.001c-0.181-0.18-0.35-0.372-0.505-0.574l-0.010-0.014c-0.086-0.128-0.176-0.239-0.274-0.342l0.001 0.001c-0.050-0.008-0.108-0.012-0.166-0.012-0.027 0-0.054 0.001-0.081 0.003l0.004-0-1.913-0.014c-0.23-0.002-0.437-0.095-0.588-0.245l0 0-0.591-0.593-0.571 0.571c-0.152 0.152-0.362 0.246-0.594 0.246s-0.442-0.094-0.594-0.246v0l-0.588-0.586-0.571 0.571c-0.152 0.152-0.362 0.245-0.594 0.245s-0.442-0.094-0.594-0.245l-1.429-1.421c-0.295-0.245-0.535-0.545-0.706-0.885l-0.007-0.016c-0.082-0.193-0.13-0.418-0.13-0.654 0-0.176 0.027-0.346 0.076-0.506l-0.003 0.012c0.015-0.047 0.032-0.087 0.052-0.125l-0.002 0.004c0.193-0.381 0.454-0.701 0.77-0.956l0.006-0.004 0.942-0.948c0.121-0.134 0.255-0.252 0.402-0.353l0.008-0.005c0.152-0.1 0.329-0.179 0.519-0.226l0.012-0.002c0.144-0.028 0.309-0.044 0.478-0.044 0.059 0 0.117 0.002 0.175 0.006l-0.008-0 5.947 0.050c0.043 0.003 0.094 0.005 0.145 0.005s0.102-0.002 0.152-0.006l-0.007 0c0.082-0.085 0.157-0.179 0.223-0.278l0.005-0.007c0.172-0.233 0.348-0.438 0.537-0.63l-0.001 0.001c1.063-1.077 2.539-1.744 4.171-1.744 3.237 0 5.86 2.624 5.86 5.86 0 1.605-0.645 3.059-1.69 4.117l0.001-0.001-0.053 0.057c-1.046 1.029-2.482 1.665-4.067 1.666h-0zM20.072 24.596c0.196 0.001 0.386 0.021 0.57 0.057l-0.019-0.003c0.247 0.057 0.464 0.165 0.647 0.313l-0.003-0.002c0.221 0.203 0.417 0.429 0.585 0.674l0.009 0.013c0.111 0.141 0.224 0.266 0.343 0.385l0 0c0.753 0.763 1.799 1.236 2.955 1.236 1.11 0 2.117-0.436 2.862-1.145l-0.002 0.002c0.012-0.012 0.025-0.026 0.039-0.040 0.862-0.77 1.403-1.886 1.403-3.128 0-2.313-1.875-4.188-4.188-4.188-1.242 0-2.357 0.54-3.124 1.399l-0.004 0.004c-0.125 0.126-0.242 0.261-0.35 0.404l-0.007 0.010c-0.154 0.226-0.322 0.424-0.509 0.602l-0.002 0.001c-0.183 0.16-0.406 0.279-0.651 0.342l-0.011 0.002c-0.171 0.035-0.367 0.055-0.568 0.055-0.077 0-0.153-0.003-0.228-0.009l0.010 0.001-5.941-0.050c-0.026-0.002-0.056-0.003-0.087-0.003-0.061 0-0.12 0.005-0.179 0.013l0.007-0.001c0.042 0.008 0 0.042-0.043 0.092l-1.045 1.049c-0.123 0.097-0.229 0.208-0.318 0.332l-0.003 0.005c0.076 0.113 0.164 0.21 0.264 0.293l0.002 0.002 0.892 0.887 0.574-0.572c0.152-0.152 0.362-0.246 0.594-0.246s0.442 0.094 0.594 0.246v0l0.586 0.588 0.572-0.571c0.152-0.152 0.362-0.246 0.594-0.246s0.442 0.094 0.594 0.246v0l0.942 0.942 1.644 0.012z"></path>
<path fill="#fff" style="fill: var(--color1, #fff)" d="M26.085 24.593c-0.428-0-0.775-0.347-0.775-0.776 0-0.215 0.088-0.41 0.229-0.551l0-0c0.055-0.056 0.090-0.132 0.090-0.217v-0c0-0.002 0-0.005 0-0.008 0-0.077-0.031-0.146-0.081-0.196l0 0c-0.164-0.143-0.267-0.352-0.267-0.585 0-0.428 0.347-0.776 0.776-0.776 0.237 0 0.449 0.106 0.592 0.274l0.001 0.001c0.328 0.332 0.531 0.788 0.531 1.292 0 0.009-0 0.018-0 0.026v-0.001c-0.006 0.509-0.215 0.967-0.549 1.3l-0 0c-0.14 0.139-0.333 0.225-0.546 0.225v0z"></path>
<path fill="#fff" style="fill: var(--color1, #fff)" d="M18.598 30.747h-16.064c-0.535 0-0.969-0.434-0.969-0.969v0-26.663c0-0.535 0.434-0.969 0.969-0.969v0h18.201c0.535 0 0.969 0.434 0.969 0.969v0 12.294c0 0.012 0.001 0.025 0.001 0.039 0 0.535-0.434 0.969-0.969 0.969s-0.969-0.434-0.969-0.969c0-0.014 0-0.027 0.001-0.041l-0 0.002v-11.323h-16.265v24.725h15.094c0.535 0 0.969 0.434 0.969 0.969s-0.434 0.969-0.969 0.969v0z"></path>
<path fill="#fff" style="fill: var(--color1, #fff)" d="M7.323 18.077c-0.625 0-1.131-0.506-1.131-1.131v0-1.002c0-0.624 0.506-1.131 1.131-1.131s1.131 0.506 1.131 1.131v0 1.002c0 0.625-0.506 1.131-1.131 1.131v0z"></path>
</svg>