<svg id="Edit_Icon_-_20_x_20" data-name="Edit Icon - 20 x 20" xmlns="http://www.w3.org/2000/svg" width="38" height="38" viewBox="0 0 38 38">
  <rect id="Rectangle_2316" data-name="Rectangle 2316" width="38" height="38" fill="#fff" opacity="0"/>
  <g id="Edit" transform="translate(12 12)">
    <g id="Bg" transform="translate(0 0.004)" opacity="0">
      <rect id="Rectangle_1344" data-name="Rectangle 1344" width="11.996" height="11.996" fill="#0b6fd0"/>
    </g>
    <g id="Edit-2" data-name="Edit" transform="translate(0)">
      <path id="Path_5588" data-name="Path 5588" d="M1.762,15.1a.656.656,0,0,1-.464-.2.648.648,0,0,1-.189-.535l.244-2.2a3.665,3.665,0,0,1,.1-.645,2.051,2.051,0,0,1,.236-.511,3.867,3.867,0,0,1,.472-.527L10.8,1.855A2.5,2.5,0,0,1,12.563,1.1,2.511,2.511,0,0,1,15.1,3.577,2.514,2.514,0,0,1,14.4,5.363l-8.7,8.7a3.542,3.542,0,0,1-.472.425,2.007,2.007,0,0,1-.5.252,3.988,3.988,0,0,1-.692.118L1.833,15.1H1.762ZM12.594,2.413a1.179,1.179,0,0,0-.857.362L3.068,11.442a2.223,2.223,0,0,0-.3.33.489.489,0,0,0-.055.126,2.056,2.056,0,0,0-.055.37V12.3L2.5,13.7l1.408-.157a1.844,1.844,0,0,0,.441-.071.437.437,0,0,0,.118-.063,2.666,2.666,0,0,0,.275-.26L13.42,4.474a1.233,1.233,0,0,0,.37-.881,1.166,1.166,0,0,0-.362-.842,1.192,1.192,0,0,0-.834-.338ZM2.006,12.228Z" transform="translate(-1.104 -1.099)" fill="#0b6fd0"/>
    </g>
  </g>
</svg>
