<svg xmlns="http://www.w3.org/2000/svg" width="69.446" height="30" viewBox="0 0 69.446 30">
  <g id="Logo" transform="translate(-110.716 -30.289)">
    <g id="Placeholder_rec" data-name="Placeholder rec" transform="translate(110.716 30.289)" fill="#fff" stroke="#707070" stroke-width="1" opacity="0">
      <rect width="69.446" height="30" stroke="none"/>
      <rect x="0.5" y="0.5" width="68.446" height="29" fill="none"/>
    </g>
    <g id="Oloid_Logo" data-name="Oloid Logo" transform="translate(110.717 36.7)">
      <path id="Path_8634" data-name="Path 8634" d="M6.973,0A6.867,6.867,0,0,0,0,6.754l.006,3.532a6.858,6.858,0,0,0,6.973,6.754c4.157,0,6.979-2.782,6.973-6.754l-.006-3.532C14.174,3.114,11.178,0,6.973,0Zm3.575,9.559c0,2.334-1.441,3.969-3.569,3.969A3.783,3.783,0,0,1,3.41,9.559V7.484A3.781,3.781,0,0,1,6.977,3.515a3.632,3.632,0,0,1,3.569,3.969l0,2.075Z" transform="translate(0 0)" fill="#fff"/>
      <path id="Path_8635" data-name="Path 8635" d="M153.7,0a6.867,6.867,0,0,0-6.973,6.754l.006,3.532a6.858,6.858,0,0,0,6.973,6.754c4.157,0,6.979-2.782,6.973-6.754l-.006-3.532C160.9,3.114,157.907,0,153.7,0Zm3.575,9.559c0,2.334-1.441,3.969-3.569,3.969a3.783,3.783,0,0,1-3.569-3.969l0-2.075a3.785,3.785,0,0,1,3.569-3.969,3.632,3.632,0,0,1,3.569,3.969Z" transform="translate(-118.465 0)" fill="#fff"/>
      <path id="Path_8636" data-name="Path 8636" d="M93.17,17.5h4.687V14.149s-3.764-.039-4.687-.039a.993.993,0,0,1-1.015-1.064V.4H88.7V13.612S88.227,17.228,93.17,17.5Z" transform="translate(-71.603 -0.325)" fill="#fff"/>
      <rect id="Rectangle_2129" data-name="Rectangle 2129" width="3.508" height="16.807" transform="translate(47.197 0.194)" fill="#fff"/>
      <path id="Path_8637" data-name="Path 8637" d="M305.589,11.1V7.766s-.075-1.162-.2-2.086a6.535,6.535,0,0,0-5.538-4.65H292.5V17.837h7.353c6.276-1.1,5.737-6.736,5.737-6.736Zm-6.17,3.676h-3.413V4.25h3.413a3.291,3.291,0,0,1,2.668,2.89,11.383,11.383,0,0,1,.025,1.338s.01,1.515.01,2.069C302.122,12.029,302.315,14.253,299.419,14.779Z" transform="translate(-236.155 -0.838)" fill="#fff"/>
    </g>
  </g>
</svg>
