<svg id="icon-Logo" viewBox="0 0 132 32" fill="none" xmlns="http://www.w3.org/2000/svg">
<path fill="#fff" style="fill: var(--color1, #fff)" d="M36.345 6.838c-0.033-0.001-0.073-0.001-0.112-0.001-4.004 0-7.258 3.211-7.326 7.199l-0 0.006 0.006 3.768c0 3.979 3.232 7.121 7.438 7.205 4.434 0 7.444-2.968 7.438-7.205l-0.006-3.768c0.243-3.883-2.952-7.205-7.438-7.205zM40.158 17.034c0 2.491-1.537 4.233-3.808 4.233-2.153-0.049-3.808-1.895-3.808-4.233v-2.213c0-2.338 1.701-4.233 3.805-4.233 2.118 0.028 3.824 1.752 3.824 3.874 0 0.127-0.006 0.252-0.018 0.375l0.001-0.016 0.004 2.213z"></path>
<path fill="#fff" style="fill: var(--color1, #fff)" d="M66.494 6.838c-0.033-0.001-0.073-0.001-0.112-0.001-4.004 0-7.258 3.211-7.326 7.199l-0 0.006 0.006 3.768c0 3.979 3.232 7.121 7.438 7.205 4.434 0 7.444-2.968 7.438-7.205l-0.006-3.768c0.241-3.883-2.954-7.205-7.438-7.205zM70.308 17.034c0 2.491-1.537 4.233-3.808 4.233-2.153-0.049-3.808-1.895-3.808-4.233l-0.004-2.213c0-2.338 1.705-4.233 3.808-4.233 2.118 0.028 3.824 1.752 3.824 3.874 0 0.127-0.006 0.252-0.018 0.375l0.001-0.016z"></path>
<path fill="#fff" style="fill: var(--color1, #fff)" d="M51.912 25.154h4.999v-3.57s-4.015-0.042-4.999-0.042c-0.008 0-0.017 0-0.026 0-0.585 0-1.059-0.474-1.059-1.059 0-0.026 0.001-0.053 0.003-0.079l-0 0.003v-13.49h-3.686v14.092s-0.504 3.857 4.769 4.144z"></path>
<path fill="#fff" style="fill: var(--color1, #fff)" d="M79.25 7.045h3.742v17.928h-3.742v-17.928z"></path>
<path fill="#fff" style="fill: var(--color1, #fff)" d="M102.971 17.788v-3.561s-0.080-1.24-0.212-2.225c-1.214-4.546-5.908-4.96-5.908-4.96h-7.843v17.927h7.843c6.692-1.176 6.119-7.184 6.119-7.184zM96.389 21.709h-3.641v-11.231h3.641s2.589 0.428 2.846 3.083c0.023 0.282 0.037 0.61 0.037 0.942 0 0.171-0.004 0.341-0.010 0.509l0.001-0.024s0.010 1.616 0.010 2.207c-0.001 1.581 0.205 3.951-2.883 4.515z"></path>
</svg>