<svg width="152" height="132" viewBox="0 0 152 132" fill="none" xmlns="http://www.w3.org/2000/svg">
<circle cx="76" cy="58.9746" r="52" fill="#EAECF0"/>
<circle cx="21" cy="25.9746" r="5" fill="#F2F4F7"/>
<circle cx="18" cy="109.975" r="7" fill="#F2F4F7"/>
<circle cx="145" cy="41.9746" r="7" fill="#F2F4F7"/>
<circle cx="134" cy="14.9746" r="4" fill="#F2F4F7"/>
<g filter="url(#filter0_dd_842_116393)">
<path d="M76 37.0375L80.536 35.1376L76.0006 37.0697V91.1644L117.796 73.65V19.5312L118 19.4458L117.796 19.3555V19.2646L117.692 19.3092L76.3298 0.974609L34 19.006L34.2004 19.0921L34 72.9912L76 91.1322L76 37.0375Z" fill="#F9FAFB"/>
<path d="M76 37.0373V91.1319L34 72.9909L34.2004 19.0918L76 37.0373Z" fill="url(#paint0_linear_842_116393)"/>
<path d="M76.0007 37.0697V91.1644L117.796 73.65V19.2646L76.0007 37.0697Z" fill="url(#paint1_linear_842_116393)"/>
<path d="M76 37.0375L118 19.4458L76.3298 0.974609L34 19.006L76 37.0375Z" fill="#F2F4F7"/>
<path d="M49.8324 12.2624L91.6722 30.4737L92.0523 43.7449L103.759 38.9146L103.405 25.5597L60.327 7.79199L49.8324 12.2624Z" fill="#EAECF0"/>
</g>
<defs>
<filter id="filter0_dd_842_116393" x="14" y="0.974609" width="124" height="130.189" filterUnits="userSpaceOnUse" color-interpolation-filters="sRGB">
<feFlood flood-opacity="0" result="BackgroundImageFix"/>
<feColorMatrix in="SourceAlpha" type="matrix" values="0 0 0 0 0 0 0 0 0 0 0 0 0 0 0 0 0 0 127 0" result="hardAlpha"/>
<feMorphology radius="4" operator="erode" in="SourceAlpha" result="effect1_dropShadow_842_116393"/>
<feOffset dy="8"/>
<feGaussianBlur stdDeviation="4"/>
<feColorMatrix type="matrix" values="0 0 0 0 0.0627451 0 0 0 0 0.0941176 0 0 0 0 0.156863 0 0 0 0.03 0"/>
<feBlend mode="normal" in2="BackgroundImageFix" result="effect1_dropShadow_842_116393"/>
<feColorMatrix in="SourceAlpha" type="matrix" values="0 0 0 0 0 0 0 0 0 0 0 0 0 0 0 0 0 0 127 0" result="hardAlpha"/>
<feMorphology radius="4" operator="erode" in="SourceAlpha" result="effect2_dropShadow_842_116393"/>
<feOffset dy="20"/>
<feGaussianBlur stdDeviation="12"/>
<feColorMatrix type="matrix" values="0 0 0 0 0.0627451 0 0 0 0 0.0941176 0 0 0 0 0.156863 0 0 0 0.08 0"/>
<feBlend mode="normal" in2="effect1_dropShadow_842_116393" result="effect2_dropShadow_842_116393"/>
<feBlend mode="normal" in="SourceGraphic" in2="effect2_dropShadow_842_116393" result="shape"/>
</filter>
<linearGradient id="paint0_linear_842_116393" x1="34" y1="73.2628" x2="50.587" y2="28.3408" gradientUnits="userSpaceOnUse">
<stop stop-color="#DEE1E8"/>
<stop offset="1" stop-color="#EFF1F5"/>
</linearGradient>
<linearGradient id="paint1_linear_842_116393" x1="76.0001" y1="38.1285" x2="123.359" y2="47.5572" gradientUnits="userSpaceOnUse">
<stop stop-color="#E4E7EC"/>
<stop offset="1" stop-color="#F2F4F7"/>
</linearGradient>
</defs>
</svg>
