<svg viewBox="0 0 32 32" fill="none" xmlns="http://www.w3.org/2000/svg">
<path fill="#fff" style="fill: var(--color1, #fff)" d="M25.117 30.517c-0.004 0-0.009 0-0.015 0-0.175 0-0.34-0.041-0.486-0.115l0.006 0.003c-0.412-0.192-0.693-0.6-0.701-1.074v-0.001l-0.034-1.712h-0.926c-0.663 0-1.2-0.537-1.2-1.2s0.537-1.2 1.2-1.2v0h2.112c0.655 0.006 1.184 0.533 1.195 1.186v0.364l2.658-2.24-2.589-2.163v0.19c-0.005 0.662-0.541 1.198-1.203 1.203h-4.8v1.584c-0.002 0.477-0.282 0.888-0.687 1.078l-0.007 0.003c-0.15 0.070-0.325 0.111-0.511 0.111-0.292 0-0.561-0.102-0.772-0.273l0.002 0.002-5.661-4.699c-0.265-0.217-0.434-0.545-0.434-0.912 0-0.002 0-0.004 0-0.007v0c0.003-0.37 0.17-0.701 0.432-0.923l0.002-0.001 5.661-4.8c0.206-0.178 0.477-0.287 0.773-0.287 0.178 0 0.346 0.039 0.498 0.109l-0.007-0.003c0.415 0.189 0.701 0.596 0.71 1.071l0 0.001 0.026 1.715h0.926c0.663 0 1.2 0.537 1.2 1.2s-0.537 1.2-1.2 1.2v0h-2.102c-0.657-0.003-1.191-0.529-1.205-1.183l-0-0.001v-0.366l-2.658 2.24 2.598 2.157v-0.19c0-0.001 0-0.003 0-0.005 0-0.66 0.534-1.196 1.193-1.198h4.815v-1.584c0.005-0.478 0.283-0.89 0.686-1.088l0.007-0.003c0.149-0.067 0.323-0.107 0.506-0.107 0.293 0 0.563 0.1 0.776 0.269l-0.003-0.002 5.662 4.709c0.263 0.218 0.43 0.544 0.434 0.908v0.001c-0.008 0.37-0.174 0.7-0.432 0.927l-5.664 4.801c-0.206 0.177-0.475 0.286-0.769 0.288h-0.001zM3.854 30.429h-2.64c-0.663 0-1.2-0.537-1.2-1.2s0.537-1.2 1.2-1.2v0h1.44v-22.734c0.005-2.102 1.708-3.804 3.809-3.81h8.527c2.102 0.005 3.804 1.708 3.81 3.809v1.903h3.774c2.101 0.006 3.803 1.708 3.81 3.809v2.381c0 0.663-0.537 1.2-1.2 1.2s-1.2-0.537-1.2-1.2v0-2.381c0-0.78-0.632-1.412-1.411-1.413h-3.774v1.872c0 0.663-0.537 1.2-1.2 1.2s-1.2-0.537-1.2-1.2v0-6.171c-0.003-0.779-0.634-1.41-1.413-1.413h-8.527c-0.776 0.004-1.403 0.633-1.403 1.41 0 0.001 0 0.002 0 0.003v-0 22.734h6.286c0.663 0 1.2 0.537 1.2 1.2s-0.537 1.2-1.2 1.2v0zM7.214 19.104c-0.001 0-0.002 0-0.003 0-0.376 0-0.682-0.305-0.682-0.682 0-0.003 0-0.007 0-0.010v0-1.888c0-0.001-0-0.003-0-0.005 0-0.376 0.304-0.68 0.68-0.68 0.002 0 0.003 0 0.005 0h1.888c0.001 0 0.003-0 0.005-0 0.379 0 0.686 0.306 0.688 0.685v1.888c0 0 0 0.001 0 0.002 0 0.381-0.309 0.69-0.69 0.69-0.001 0-0.002 0-0.003 0h0zM12.322 14.213c-0.383-0.001-0.693-0.311-0.693-0.694 0 0 0 0 0 0v-1.888c0.002-0.382 0.311-0.69 0.693-0.691h1.888c0.378 0.002 0.683 0.308 0.683 0.686 0 0.002 0 0.003-0 0.005v-0 1.888c0 0.002 0 0.005 0 0.008 0 0.378-0.306 0.685-0.683 0.686h-0zM7.214 14.213c-0.379-0.002-0.685-0.309-0.685-0.688 0-0.002 0-0.005 0-0.007v0-1.888c0-0.001 0-0.002 0-0.003 0-0.379 0.306-0.686 0.685-0.688h1.888c0.381 0.002 0.69 0.31 0.693 0.691v1.888c-0.001 0.383-0.31 0.693-0.693 0.694h-0zM12.322 9.294c-0.001 0-0.002 0-0.003 0-0.378 0-0.685-0.304-0.69-0.681v-1.888c0 0 0 0 0 0 0-0.383 0.31-0.694 0.693-0.694h1.888c0.378 0.002 0.683 0.308 0.683 0.686 0 0.003-0 0.006-0 0.008v-0 1.888c0 0 0 0 0 0 0 0.376-0.305 0.682-0.682 0.682-0.001 0-0.001 0-0.002 0h0zM7.214 9.294c-0 0-0.001 0-0.002 0-0.377 0-0.682-0.305-0.683-0.681v-1.888c-0-0.002-0-0.004-0-0.006 0-0.379 0.306-0.686 0.685-0.688h1.888c0.382 0.002 0.692 0.312 0.693 0.694v1.888c-0.005 0.378-0.313 0.682-0.691 0.682-0.001 0-0.001 0-0.002 0h0z"></path>
</svg>
