<svg width="61" height="61" viewBox="0 0 61 61" fill="none" xmlns="http://www.w3.org/2000/svg">
<path d="M30.9561 5.82034C26.0115 5.82034 21.178 7.28657 17.0668 10.0336C12.9556 12.7806 9.75127 16.6851 7.85908 21.2533C5.96689 25.8214 5.4718 30.8481 6.43643 35.6976C7.40106 40.5471 9.78208 45.0017 13.2784 48.498C16.7747 51.9943 21.2293 54.3753 26.0788 55.34C30.9283 56.3046 35.955 55.8095 40.5232 53.9173C45.0913 52.0251 48.9958 48.8208 51.7428 44.7096C54.4898 40.5984 55.9561 35.7649 55.9561 30.8203C55.9561 27.5373 55.3094 24.2864 54.0531 21.2533C52.7967 18.2201 50.9552 15.4641 48.6337 13.1427C46.3123 10.8212 43.5563 8.97972 40.5232 7.72335C37.49 6.46699 34.2391 5.82034 30.9561 5.82034ZM28.4561 18.3203C28.4561 17.6573 28.7195 17.0214 29.1883 16.5526C29.6571 16.0837 30.293 15.8203 30.9561 15.8203C31.6191 15.8203 32.255 16.0837 32.7238 16.5526C33.1927 17.0214 33.4561 17.6573 33.4561 18.3203V33.3203C33.4561 33.9834 33.1927 34.6193 32.7238 35.0881C32.255 35.557 31.6191 35.8203 30.9561 35.8203C30.293 35.8203 29.6571 35.557 29.1883 35.0881C28.7195 34.6193 28.4561 33.9834 28.4561 33.3203V18.3203ZM30.9561 48.3203C30.2144 48.3203 29.4894 48.1004 28.8727 47.6884C28.256 47.2763 27.7753 46.6906 27.4915 46.0054C27.2077 45.3202 27.1334 44.5662 27.2781 43.8388C27.4228 43.1113 27.78 42.4431 28.3044 41.9187C28.8289 41.3942 29.497 41.0371 30.2245 40.8924C30.9519 40.7477 31.7059 40.822 32.3911 41.1058C33.0764 41.3896 33.662 41.8703 34.0741 42.487C34.4861 43.1036 34.7061 43.8287 34.7061 44.5703C34.7061 45.5649 34.311 46.5187 33.6077 47.222C32.9045 47.9253 31.9506 48.3203 30.9561 48.3203Z" fill="#F2A93C"/>
</svg>
