<svg id="Success_and_error_icon" data-name="Success and error icon" xmlns="http://www.w3.org/2000/svg" width="14" height="14" viewBox="0 0 14 14">
  <g id="Attention_needed" data-name="Attention needed" transform="translate(22627 17246)">
    <rect id="Bg" width="14" height="14" transform="translate(-22627 -17246)" fill="#fff" opacity="0"/>
    <g id="Group_28039" data-name="Group 28039" transform="translate(-22626.756 -17245.756)">
      <path id="Path_6640" data-name="Path 6640" d="M7.105.35A6.755,6.755,0,1,0,13.86,7.105,6.755,6.755,0,0,0,7.105.35Z" transform="translate(-0.35 -0.35)" fill="#d0880b"/>
      <g id="Group_27675" data-name="Group 27675" transform="translate(5.859 3.122)">
        <path id="Path_6641" data-name="Path 6641" d="M9.633,4.81a.854.854,0,0,1,.854.9L10.319,9A.687.687,0,0,1,8.947,9l-.168-3.3a.846.846,0,0,1,.854-.9Z" transform="translate(-8.737 -4.81)" fill="#f9fafb"/>
        <path id="Path_6642" data-name="Path 6642" d="M9.616,14.425a.893.893,0,1,1,.9-.889.887.887,0,0,1-.9.889Z" transform="translate(-8.72 -7.159)" fill="#f9fafb"/>
      </g>
    </g>
  </g>
</svg>
