<svg width="60" height="60" viewBox="0 0 60 60" fill="none" xmlns="http://www.w3.org/2000/svg">
<mask id="path-1-inside-1_255_6" fill="white">
<path d="M39.2346 49.7813C39.7503 50.25 40.5471 50.2031 41.0159 49.6875C41.4846 49.1719 41.4378 48.375 40.9221 47.9063L22.7815 31.5C22.3128 31.0781 22.3128 30.4688 22.7815 30.0469L40.9221 14.2031C41.4378 13.7344 41.4846 12.9375 41.0628 12.4219C40.594 11.9063 39.7971 11.8594 39.2815 12.2813L21.1409 28.1719C19.5471 29.5781 19.5003 31.9219 21.094 33.375L39.2346 49.7813Z"/>
</mask>
<path d="M39.2346 49.7813C39.7503 50.25 40.5471 50.2031 41.0159 49.6875C41.4846 49.1719 41.4378 48.375 40.9221 47.9063L22.7815 31.5C22.3128 31.0781 22.3128 30.4688 22.7815 30.0469L40.9221 14.2031C41.4378 13.7344 41.4846 12.9375 41.0628 12.4219C40.594 11.9063 39.7971 11.8594 39.2815 12.2813L21.1409 28.1719C19.5471 29.5781 19.5003 31.9219 21.094 33.375L39.2346 49.7813Z" fill="black"/>
<path d="M39.2346 49.7813L41.2527 47.5614L41.2469 47.5562L39.2346 49.7813ZM40.9221 47.9063L42.9402 45.6864L42.9344 45.6812L40.9221 47.9063ZM22.7815 31.5L24.7938 29.275L24.7884 29.2701L22.7815 31.5ZM22.7815 30.0469L20.8081 27.7873L20.7912 27.802L20.7746 27.817L22.7815 30.0469ZM40.9221 14.2031L42.8956 16.4627L42.9181 16.443L42.9402 16.423L40.9221 14.2031ZM41.0628 12.4219L43.3846 10.5222L43.3351 10.4617L43.2826 10.4039L41.0628 12.4219ZM39.2815 12.2813L37.3818 9.95938L37.3427 9.99135L37.3048 10.0246L39.2815 12.2813ZM21.1409 28.1719L19.1641 25.9152L19.156 25.9224L21.1409 28.1719ZM21.094 33.375L19.0727 35.5919L19.0817 35.6L21.094 33.375ZM37.2166 52.0011C38.987 53.6105 41.6788 53.4181 43.2357 51.7055L38.7961 47.6695C39.4155 46.9882 40.5135 46.8895 41.2527 47.5614L37.2166 52.0011ZM43.2357 51.7055C44.8452 49.9351 44.6527 47.2433 42.9402 45.6864L38.9041 50.1261C38.2228 49.5067 38.1241 48.4086 38.7961 47.6695L43.2357 51.7055ZM42.9344 45.6812L24.7938 29.275L20.7692 33.725L38.9098 50.1313L42.9344 45.6812ZM24.7884 29.2701C25.1011 29.5515 25.4299 30.0726 25.4299 30.7734C25.4299 31.4742 25.1011 31.9954 24.7884 32.2768L20.7746 27.817C19.9932 28.5203 19.4299 29.557 19.4299 30.7734C19.4299 31.9899 19.9932 33.0266 20.7746 33.7299L24.7884 29.2701ZM24.755 32.3064L42.8956 16.4627L38.9487 11.9436L20.8081 27.7873L24.755 32.3064ZM42.9402 16.423C44.641 14.8767 44.8137 12.2688 43.3846 10.5222L38.7409 14.3216C38.1556 13.6063 38.2345 12.5921 38.9041 11.9833L42.9402 16.423ZM43.2826 10.4039C41.7363 8.70299 39.1284 8.53035 37.3818 9.95938L41.1812 14.6031C40.4659 15.1884 39.4517 15.1095 38.8429 14.4399L43.2826 10.4039ZM37.3048 10.0246L19.1641 25.9152L23.1176 30.4285L41.2583 14.5379L37.3048 10.0246ZM19.156 25.9224C16.2427 28.493 16.1407 32.9186 19.0727 35.5919L23.1153 31.1581C22.9441 31.0021 22.9209 30.87 22.9219 30.7931C22.9229 30.7111 22.9542 30.5727 23.1257 30.4214L19.156 25.9224ZM19.0817 35.6L37.2223 52.0063L41.2469 47.5562L23.1063 31.15L19.0817 35.6Z" fill="black" mask="url(#path-1-inside-1_255_6)"/>
</svg>
