<svg xmlns="http://www.w3.org/2000/svg" xmlns:xlink="http://www.w3.org/1999/xlink" width="32" height="32" viewBox="0 0 32 32">
  <defs>
    <filter id="Bg">
      <feOffset input="SourceAlpha"/>
      <feGaussianBlur stdDeviation="3" result="blur"/>
      <feFlood flood-color="#202020" flood-opacity="0.2" result="color"/>
      <feComposite operator="out" in="SourceGraphic" in2="blur"/>
      <feComposite operator="in" in="color"/>
      <feComposite operator="in" in2="SourceGraphic"/>
    </filter>
  </defs>
  <g id="Bluetooth_icon" data-name="Bluetooth icon" transform="translate(-38 -142)">
    <g data-type="innerShadowGroup">
      <circle id="Bg-2" data-name="Bg" cx="16" cy="16" r="16" transform="translate(38 142)" fill="#f5f6fa"/>
      <g transform="matrix(1, 0, 0, 1, 38, 142)" filter="url(#Bg)">
        <circle id="Bg-3" data-name="Bg" cx="16" cy="16" r="16" fill="#fff"/>
      </g>
    </g>
    <g id="Bluetooth" transform="translate(45 149)">
      <g id="Bg-4" data-name="Bg" opacity="0">
        <rect id="Rectangle_1922" data-name="Rectangle 1922" width="18" height="18" fill="#fff"/>
      </g>
      <g id="Bluetooth-2" data-name="Bluetooth" transform="translate(4.011 1.143)">
        <path id="Path_7084" data-name="Path 7084" d="M9.763,17.476a.667.667,0,0,1-.3-.067.709.709,0,0,1-.4-.63V11.1l-3.16,2.635a.691.691,0,1,1-.888-1.06L8.675,9.628,5.018,6.582a.691.691,0,1,1,.888-1.06l3.16,2.635V2.467A.693.693,0,0,1,10.2,1.932l4.3,3.58a.679.679,0,0,1,.248.535.71.71,0,0,1-.248.535L10.842,9.628,14.5,12.673a.679.679,0,0,1,.248.535.71.71,0,0,1-.248.535l-4.3,3.58a.694.694,0,0,1-.439.162Zm.7-6.378v4.2l2.521-2.1Zm0-7.161v4.2l2.521-2.1Z" transform="translate(-4.768 -1.771)" fill="#101828"/>
      </g>
    </g>
  </g>
</svg>
