<svg xmlns="http://www.w3.org/2000/svg" xmlns:xlink="http://www.w3.org/1999/xlink" width="32" height="32" viewBox="0 0 32 32">
  <defs>
    <filter id="Ellipse_265">
      <feOffset input="SourceAlpha"/>
      <feGaussianBlur stdDeviation="3" result="blur"/>
      <feFlood flood-opacity="0.2" result="color"/>
      <feComposite operator="out" in="SourceGraphic" in2="blur"/>
      <feComposite operator="in" in="color"/>
      <feComposite operator="in" in2="SourceGraphic"/>
    </filter>
  </defs>
  <g id="Face_icon" data-name="Face icon" transform="translate(-38 -362)">
    <g data-type="innerShadowGroup">
      <circle id="Ellipse_265-2" data-name="Ellipse 265" cx="16" cy="16" r="16" transform="translate(38 362)" fill="#f5f6fa"/>
      <g transform="matrix(1, 0, 0, 1, 38, 362)" filter="url(#Ellipse_265)">
        <circle id="Ellipse_265-3" data-name="Ellipse 265" cx="16" cy="16" r="16" fill="#fff"/>
      </g>
    </g>
    <g id="Face_id" data-name="Face id" transform="translate(45 369)">
      <g id="Bg" opacity="0">
        <rect id="Rectangle_1552" data-name="Rectangle 1552" width="18" height="18" fill="#101828"/>
      </g>
      <g id="Face_id-2" data-name="Face id" transform="translate(1.466 1.464)">
        <path id="Union_26" data-name="Union 26" d="M11.313,15.076a6.972,6.972,0,0,1-.721-.034h-.059a.747.747,0,1,1,0-1.495h.152a4.993,4.993,0,0,0,2.078-.187,1.473,1.473,0,0,0,.584-.587,4.837,4.837,0,0,0,.191-2v-.234a.747.747,0,0,1,1.494,0v.153a6.245,6.245,0,0,1-.281,2.61.607.607,0,0,1-.043.106,3.017,3.017,0,0,1-1.314,1.316c-.039.017-.074.034-.107.047a6.256,6.256,0,0,1-1.975.311Zm-9.527-.323a.53.53,0,0,1-.107-.043A2.97,2.97,0,0,1,.361,13.394a.634.634,0,0,1-.047-.107A6.386,6.386,0,0,1,.039,10.6v-.064a.747.747,0,1,1,1.494,0v.153a4.992,4.992,0,0,0,.186,2.078,1.489,1.489,0,0,0,.584.588,4.755,4.755,0,0,0,2,.188h.236a.747.747,0,0,1,0,1.494H4.385a5.6,5.6,0,0,1-.65.034v.009A6.171,6.171,0,0,1,1.785,14.753Zm2.754-4.283L5.59,9.4A2.7,2.7,0,0,0,9.4,9.4a.751.751,0,0,1,1.064,1.06,4.187,4.187,0,0,1-5.93.009ZM6.787,8.732A.747.747,0,0,1,6.77,7.238a.4.4,0,0,0,.395-.4v-2.3a.747.747,0,0,1,1.494,0v2.32A1.893,1.893,0,0,1,6.8,8.732Zm3.375-3.07V4.538a.747.747,0,0,1,1.494,0V5.662a.747.747,0,1,1-1.494,0Zm-6.752,0V4.538a.747.747,0,0,1,1.494,0V5.662a.747.747,0,1,1-1.494,0ZM13.539,4.547V4.394a5.09,5.09,0,0,0-.191-2.078,1.429,1.429,0,0,0-.584-.583,4.819,4.819,0,0,0-2-.2h-.23a.747.747,0,1,1,0-1.494h.152A6.262,6.262,0,0,1,13.3.319.638.638,0,0,1,13.4.362a3.036,3.036,0,0,1,1.314,1.316.477.477,0,0,1,.041.106,6.453,6.453,0,0,1,.281,2.691v.064a.747.747,0,0,1-.748.749l-.01.009A.747.747,0,0,1,13.539,4.547Zm-13.5,0V4.394a6.3,6.3,0,0,1,.275-2.61.632.632,0,0,1,.047-.106A2.97,2.97,0,0,1,1.678.362.53.53,0,0,1,1.785.319,6.333,6.333,0,0,1,4.475.038h.064a.747.747,0,0,1,0,1.494H4.385A5.015,5.015,0,0,0,2.3,1.72a1.5,1.5,0,0,0-.584.587,4.867,4.867,0,0,0-.186,2v.234a.748.748,0,0,1-.75.749V5.3A.745.745,0,0,1,.039,4.547Z" fill="#101828"/>
      </g>
    </g>
  </g>
</svg>
