<svg xmlns="http://www.w3.org/2000/svg" xmlns:xlink="http://www.w3.org/1999/xlink" width="32" height="32" viewBox="0 0 32 32">
  <defs>
    <filter id="Ellipse_261">
      <feOffset input="SourceAlpha"/>
      <feGaussianBlur stdDeviation="3" result="blur"/>
      <feFlood flood-opacity="0.2" result="color"/>
      <feComposite operator="out" in="SourceGraphic" in2="blur"/>
      <feComposite operator="in" in="color"/>
      <feComposite operator="in" in2="SourceGraphic"/>
    </filter>
  </defs>
  <g id="NFC_Icon" data-name="NFC Icon" transform="translate(-38 -872)">
    <g data-type="innerShadowGroup">
      <circle id="Ellipse_261-2" data-name="Ellipse 261" cx="16" cy="16" r="16" transform="translate(38 872)" fill="#f5f6fa"/>
      <g transform="matrix(1, 0, 0, 1, 38, 872)" filter="url(#Ellipse_261)">
        <circle id="Ellipse_261-3" data-name="Ellipse 261" cx="16" cy="16" r="16" fill="#fff"/>
      </g>
    </g>
    <g id="NFC" transform="translate(45 879)">
      <rect id="Rectangle_1987" data-name="Rectangle 1987" width="18" height="18" fill="#101828" opacity="0"/>
      <g id="NFC-2" data-name="NFC" transform="translate(1.248 0.845)">
        <path id="Union_146" data-name="Union 146" d="M12.735,15.862a2.827,2.827,0,0,1-.961-.588,2.715,2.715,0,0,1-.636-.934,3.024,3.024,0,0,1-.224-1.222,3.248,3.248,0,0,1,.224-1.225,2.7,2.7,0,0,1,.636-.932,2.564,2.564,0,0,1,.961-.59,3.491,3.491,0,0,1,1.216-.2,3.209,3.209,0,0,1,.5.045,2.482,2.482,0,0,1,.5.142,2.654,2.654,0,0,1,.477.252,1.863,1.863,0,0,1,.411.393l-.954.773a1.293,1.293,0,0,0-.439-.335,1.423,1.423,0,0,0-.619-.12,1.589,1.589,0,0,0-.646.131,1.545,1.545,0,0,0-.511.372,1.7,1.7,0,0,0-.35.577,2.074,2.074,0,0,0-.121.721,2.115,2.115,0,0,0,.121.729,1.808,1.808,0,0,0,.339.569,1.361,1.361,0,0,0,.505.372,1.4,1.4,0,0,0,.625.131,1.419,1.419,0,0,0,.674-.158,1.3,1.3,0,0,0,.487-.449l1.037.777a2.161,2.161,0,0,1-.909.734,2.779,2.779,0,0,1-1.131.246A3.43,3.43,0,0,1,12.735,15.862Zm-6.2.1v-5.64h3.779v1.151H7.778v1.145h2.351V13.77H7.778v2.195Zm-2.818-.022-2.458-4H1.244v4H0V10.325H1.69l2.4,3.91H4.1v-3.91H5.348v5.618Zm11.17-4.171a.016.016,0,0,1,.007.011ZM6.353,9.149h0Zm0,0h0Zm0,0a.71.71,0,0,1-.508-.207A.744.744,0,0,1,5.808,7.89a3.072,3.072,0,0,1,2.233-.974,3.01,3.01,0,0,1,1.245.256,3.764,3.764,0,0,1,.916.6.779.779,0,0,1,.124,1.074.727.727,0,0,1-1.03.124,2.89,2.89,0,0,0-.608-.431,1.456,1.456,0,0,0-.646-.131,1.576,1.576,0,0,0-1.148.5A.732.732,0,0,1,6.353,9.149ZM4.628,6.5h0Zm-.01,0h0Zm.01,0a.736.736,0,0,1-.5-.207.75.75,0,0,1-.039-1.056A5.493,5.493,0,0,1,8.023,3.517a5.143,5.143,0,0,1,2.2.449,7.37,7.37,0,0,1,1.673,1.121l.083.076a.749.749,0,1,1-.954,1.156l-.094-.073a5.5,5.5,0,0,0-1.317-.9,3.962,3.962,0,0,0-1.59-.327A4.01,4.01,0,0,0,5.161,6.263.739.739,0,0,1,4.628,6.5ZM1.69,4.144a.726.726,0,0,1-.522-.214.74.74,0,0,1-.018-1.056,9.759,9.759,0,0,1,13.831-.011A.747.747,0,1,1,13.925,3.92a8.24,8.24,0,0,0-11.681,0,.76.76,0,0,1-.532.224Z" transform="translate(0 0)" fill="#101828"/>
      </g>
    </g>
  </g>
</svg>
