<svg xmlns="http://www.w3.org/2000/svg" xmlns:xlink="http://www.w3.org/1999/xlink" width="32" height="32" viewBox="0 0 32 32">
  <defs>
    <filter id="Ellipse_266">
      <feOffset input="SourceAlpha"/>
      <feGaussianBlur stdDeviation="3" result="blur"/>
      <feFlood flood-opacity="0.2" result="color"/>
      <feComposite operator="out" in="SourceGraphic" in2="blur"/>
      <feComposite operator="in" in="color"/>
      <feComposite operator="in" in2="SourceGraphic"/>
    </filter>
  </defs>
  <g id="Pin_icon" data-name="Pin icon" transform="translate(-38 -590)">
    <g data-type="innerShadowGroup">
      <circle id="Ellipse_266-2" data-name="Ellipse 266" cx="16" cy="16" r="16" transform="translate(38 590)" fill="#f5f6fa"/>
      <g transform="matrix(1, 0, 0, 1, 38, 590)" filter="url(#Ellipse_266)">
        <circle id="Ellipse_266-3" data-name="Ellipse 266" cx="16" cy="16" r="16" fill="#fff"/>
      </g>
    </g>
    <g id="Pin" transform="translate(45 597)">
      <g id="Bg" opacity="0">
        <rect id="Rectangle_1934" data-name="Rectangle 1934" width="18" height="18" fill="#fff"/>
      </g>
      <g id="Pin-2" data-name="Pin" transform="translate(0.225 1.127)">
        <path id="Union_142" data-name="Union 142" d="M3.292,15.745A3.3,3.3,0,0,1,0,12.451a3.246,3.246,0,0,1,.963-2.327A3.27,3.27,0,0,1,3.292,9.16h.847v.193A1.151,1.151,0,0,0,5.288,10.5h6.97a1.149,1.149,0,0,0,1.149-1.148V9.16h.852a3.3,3.3,0,0,1,3.29,3.291h-.007a3.235,3.235,0,0,1-.967,2.328,3.3,3.3,0,0,1-2.329.967ZM7.5,13.709a.329.329,0,0,0,.216-.106c.229-.228.079-.378-.082-.535l0-.008a1.175,1.175,0,0,1-.166-.193c.029-.024.061-.051.091-.075l0-.008a1.364,1.364,0,0,0,.145-.13.307.307,0,0,0,.021-.456.291.291,0,0,0-.213-.1.374.374,0,0,0-.252.118,2.322,2.322,0,0,0-.148.181l-.009.016-.027.032-.029.035c-.039-.043-.073-.071-.1-.1l-.059-.059a.451.451,0,0,1-.046-.043l-.029-.024c-.023-.023-.046-.047-.07-.067a.344.344,0,0,0-.222-.091.289.289,0,0,0-.2.091.3.3,0,0,0,0,.432.987.987,0,0,0,.213.193c.02.012.036.027.055.039a1.024,1.024,0,0,1-.17.2l0,.008c-.154.157-.3.3-.086.523a.325.325,0,0,0,.223.118c.118,0,.213-.1.307-.193a.92.92,0,0,1,.172-.157,1,1,0,0,1,.166.15l0,.007v0C7.288,13.611,7.385,13.709,7.5,13.709Zm3.169-.2.009,0c.1.1.191.193.306.193a.3.3,0,0,0,.216-.114.332.332,0,0,0,.118-.228c0-.114-.1-.209-.2-.3l-.007,0a.974.974,0,0,1-.147-.169.918.918,0,0,1,.147-.157l.007-.008c.1-.094.2-.189.2-.3a.31.31,0,0,0-.111-.22.317.317,0,0,0-.216-.114c-.114,0-.2.094-.295.189l0,0-.009.008a.846.846,0,0,1-.172.146.8.8,0,0,1-.163-.146.46.46,0,0,0-.306-.189.38.38,0,0,0-.229.094.249.249,0,0,0-.1.161c-.011.126.122.3.37.574h-.013l-.027.024-.009,0a2.089,2.089,0,0,0-.195.165c-.17.173-.186.342-.048.484a.3.3,0,0,0,.213.094.4.4,0,0,0,.272-.134,1.488,1.488,0,0,0,.1-.126l.02-.028c.023-.027.043-.055.063-.075v0A.944.944,0,0,1,10.666,13.509Zm2.729-.445c-.154.149-.3.291-.095.539a.222.222,0,0,0,.164.1c.123,0,.291-.126.583-.382.016.02.029.04.043.059l.02.028a.83.83,0,0,0,.15.185.315.315,0,1,0,.432-.456c-.059-.055-.125-.106-.2-.161-.023-.016-.043-.032-.063-.047.282-.311.384-.464.377-.578a.232.232,0,0,0-.086-.149.363.363,0,0,0-.232-.107.447.447,0,0,0-.3.189l-.009,0a.909.909,0,0,1-.17.146.94.94,0,0,1-.164-.142l-.007-.008c-.095-.094-.189-.193-.3-.193a.319.319,0,0,0-.229.122c-.216.224-.068.369.091.523l.007.008a1.088,1.088,0,0,1,.141.153h-.007A.928.928,0,0,1,13.395,13.064ZM2.847,12.192a.338.338,0,0,0-.122.228.5.5,0,0,0,.2.315,1.486,1.486,0,0,1,.177.2c-.021.02-.045.036-.063.051L3.017,13,3,13.009a1.273,1.273,0,0,0-.166.145.309.309,0,0,0,.206.543.341.341,0,0,0,.229-.094,1.433,1.433,0,0,0,.132-.161l.016-.024c.032-.035.059-.075.095-.118l.007-.008c.032.035.059.067.079.091.036.039.064.067.088.09a.522.522,0,0,0,.125.13.354.354,0,0,0,.22.086.3.3,0,0,0,.206-.086.3.3,0,0,0,.007-.437,2.217,2.217,0,0,0-.236-.252l-.043-.047.039-.031.036-.028a1.628,1.628,0,0,0,.184-.165.314.314,0,0,0,.013-.452.324.324,0,0,0-.225-.1.344.344,0,0,0-.231.107,1.675,1.675,0,0,0-.166.185c-.02.024-.036.047-.055.067a1.276,1.276,0,0,1-.193-.165c-.1-.1-.2-.2-.315-.2A.3.3,0,0,0,2.847,12.192ZM6.284,9.809A1.67,1.67,0,0,1,4.613,8.146v-2.8A1.671,1.671,0,0,1,6.284,3.676h.177V2.209A2.285,2.285,0,0,1,8.814,0,2.288,2.288,0,0,1,11.17,2.209V3.688a1.662,1.662,0,0,1,1.585,1.659v2.8a1.671,1.671,0,0,1-1.673,1.663ZM5.819,5.347v2.8a.464.464,0,0,0,.465.456h4.8a.464.464,0,0,0,.465-.456v-2.8a.465.465,0,0,0-.465-.464h-4.8A.465.465,0,0,0,5.819,5.347ZM7.663,2.209V3.676h2.3V2.209a1.078,1.078,0,0,0-1.149-1A1.081,1.081,0,0,0,7.663,2.209Zm1.092,5.7a.269.269,0,0,1-.272-.287A.2.2,0,0,0,8.332,7.4a.955.955,0,0,1-.524-1.069.973.973,0,0,1,.947-.755l.02-.008a.965.965,0,0,1,.936.743A.944.944,0,0,1,9.2,7.395a.227.227,0,0,0-.166.24.255.255,0,0,1-.259.279Zm-.4-1.38a.416.416,0,0,0,.4.424V6.951a.424.424,0,0,0,.431-.4.415.415,0,0,0-.4-.417H8.775A.426.426,0,0,0,8.359,6.534Z" transform="translate(0 0)" fill="#101828"/>
      </g>
    </g>
  </g>
</svg>
