<svg width="60" height="60" viewBox="0 0 60 60" fill="none" xmlns="http://www.w3.org/2000/svg">
<g clip-path="url(#clip0_244_42)">
<path fill-rule="evenodd" clip-rule="evenodd" d="M0.0878906 0.0439453H21.8799V21.748H0.0878906V0.0439453ZM54.4434 54.4873H60V59.9561H54.4434V54.4873ZM43.7646 54.4775H49.3213V59.6875H43.7646H43.7598H38.208V49.0332H43.5889V43.6328H49.0625V32.8662H54.6191V38.1592H59.9121V43.6279H54.6191V49.0967H49.1455H49.0625H43.7646V54.4775ZM27.2656 43.5449H32.6465V38.0762H27.4414V32.6074H32.6465V27.1387H27.3535V32.6074H21.792V27.1387H27.2607V10.8984H32.8174V27.1338H38.1982V32.6025H43.4912V27.1338H49.0479V32.6025H43.7646V38.0713H38.208V48.8379H32.8223V59.6924H27.2656V43.5449ZM54.3506 27.1338H59.9072V32.6025H54.3506V27.1338ZM10.9424 27.1338H16.499V32.6025H10.9424V27.1338ZM0.0878906 27.1338H5.64453V32.6025H0.0878906V27.1338ZM27.2656 0.0439453H32.8223V5.5127H27.2656V0.0439453ZM0 38.1592H21.792V59.8633H0V38.1592ZM5.29297 43.4326H16.499V54.5947H5.29297V43.4326ZM38.1152 0.0439453H59.9072V21.748H38.1152V0.0439453ZM43.4131 5.31738H54.6191V16.4795H43.4131V5.31738ZM5.38086 5.31738H16.5869V16.4795H5.38086V5.31738Z" fill="black"/>
</g>
<defs>
<clipPath id="clip0_244_42">
<rect width="60" height="60" fill="white"/>
</clipPath>
</defs>
</svg>
