<svg xmlns="http://www.w3.org/2000/svg" xmlns:xlink="http://www.w3.org/1999/xlink" width="32" height="32" viewBox="0 0 32 32">
  <defs>
    <filter id="Ellipse_260">
      <feOffset input="SourceAlpha"/>
      <feGaussianBlur stdDeviation="3" result="blur"/>
      <feFlood flood-opacity="0.2" result="color"/>
      <feComposite operator="out" in="SourceGraphic" in2="blur"/>
      <feComposite operator="in" in="color"/>
      <feComposite operator="in" in2="SourceGraphic"/>
    </filter>
  </defs>
  <g id="Qr_Code_icon" data-name="Qr Code icon" transform="translate(-38 -718)">
    <g data-type="innerShadowGroup">
      <circle id="Ellipse_260-2" data-name="Ellipse 260" cx="16" cy="16" r="16" transform="translate(38 718)" fill="#f5f6fa"/>
      <g transform="matrix(1, 0, 0, 1, 38, 718)" filter="url(#Ellipse_260)">
        <circle id="Ellipse_260-3" data-name="Ellipse 260" cx="16" cy="16" r="16" fill="#fff"/>
      </g>
    </g>
    <g id="Qr_Code" data-name="Qr Code" transform="translate(45 725)">
      <g id="Bg" opacity="0">
        <rect id="Rectangle_1554" data-name="Rectangle 1554" width="18" height="18" fill="#101828"/>
      </g>
      <g id="Qr_code-2" data-name="Qr code" transform="translate(1.52 1.501)">
        <path id="Union_65" data-name="Union 65" d="M8.245,14.268v-3.4a.729.729,0,0,1,1.458,0v3.4a.729.729,0,0,1-1.458,0Zm2.981.689a.729.729,0,1,1,0-1.459H13.49V11.252a.729.729,0,0,1,1.459,0v2.977a.722.722,0,0,1-.729.729Zm-9.769,0A1.461,1.461,0,0,1,0,13.5V9.711A1.462,1.462,0,0,1,1.458,8.254H5.246A1.462,1.462,0,0,1,6.7,9.711V13.5a1.461,1.461,0,0,1-1.458,1.459ZM1.467,13.5H5.237V9.711H1.458ZM10.835,11.6a.766.766,0,1,1,.769.764A.767.767,0,0,1,10.835,11.6Zm-8.253,0a.766.766,0,1,1,.769.764A.767.767,0,0,1,2.582,11.6Zm8.245-1.893a.729.729,0,1,1,0-1.457h3.4a.729.729,0,1,1,0,1.457ZM7.464,8.236A.764.764,0,1,1,8.228,9,.759.759,0,0,1,7.464,8.236ZM9.7,6.705A1.463,1.463,0,0,1,8.245,5.246V1.457A1.462,1.462,0,0,1,9.7,0H13.49a1.462,1.462,0,0,1,1.459,1.457V5.246A1.464,1.464,0,0,1,13.49,6.705Zm.009-1.459h3.771V1.457H9.7ZM1.458,6.705A1.464,1.464,0,0,1,0,5.246V1.457A1.462,1.462,0,0,1,1.458,0H5.246A1.462,1.462,0,0,1,6.7,1.457V5.246A1.463,1.463,0,0,1,5.246,6.705Zm.009-1.459H5.237V1.457H1.458Zm9.368-1.895a.766.766,0,1,1,.769.762A.768.768,0,0,1,10.835,3.352Zm-8.253,0a.766.766,0,1,1,.769.762A.768.768,0,0,1,2.582,3.352Z" fill="#101828"/>
      </g>
    </g>
  </g>
</svg>
