<svg width="31" height="32" viewBox="0 0 31 32" fill="none" xmlns="http://www.w3.org/2000/svg">
<g clip-path="url(#clip0_260_34)">
<path d="M16.8884 0H14.1123V11.4627H16.8884V0Z" fill="black"/>
<path d="M27.561 9.17905C26.1083 6.85424 24.0634 4.99918 21.6474 3.8143L20.4562 6.40274C24.4718 8.37211 27.0667 12.608 27.0667 17.194C27.0667 23.7779 21.8776 29.1343 15.4995 29.1343C9.12137 29.1343 3.93238 23.7779 3.93238 17.194C3.93238 12.608 6.52724 8.37211 10.5429 6.40274L9.35163 3.8143C6.93569 4.99918 4.89078 6.8543 3.43802 9.17905C1.94524 11.568 1.15625 14.3396 1.15625 17.1941C1.15625 25.3581 7.59057 32 15.4996 32C23.4086 32 29.8429 25.3581 29.8429 17.194C29.8429 14.3396 29.0539 11.5679 27.561 9.17905Z" fill="black"/>
</g>
<defs>
<clipPath id="clip0_260_34">
<rect width="31" height="32" fill="white"/>
</clipPath>
</defs>
</svg>
